# xmcd
#
# Track frame offsets: 
#        150
#        21165
#        39690
#        59315
#        77130
#        93155
#        113225
#        130444
#        147821
#        161032
#        178324
#        201319
#        225440
#        244457
#        265308
#        280427
#        296666
#
# Disc length: 4283 seconds
#
# Revision: 0
# Processed by: cddbd v1.5.2PL0 Copyright (c) Steve Scherf et al.
# Submitted via: ExactAudioCopy v0.99pb5
#
DISCID=0510b911
DTITLE=Various Artist - Billboard 1989
DYEAR=2000
DGENRE=Other
TTITLE0=Martika - Toy Soldiers
TTITLE1=Warrant - Heaven
TTITLE2=Bad English - When I See You Smile
TTITLE3=The Bangles - Eternal Flame
TTITLE4=Debbie Gibson - Lost in Your Eyes
TTITLE5=Richard Marx - Right Here Waiting
TTITLE6=Roxette - Dangerous
TTITLE7=Peter Schilling - The Different Story
TTITLE8=Tom Petty - I Won't Back Down
TTITLE9=UB40 - Kingston Town
TTITLE10=Elton John - Sacrifice
TTITLE11=Aerosmith - Love in an Elevator
TTITLE12=Cyndi Lauper - I Drove All Night
TTITLE13=The Rolling Stones - Mixed Emotions
TTITLE14=Simply Red - If You Don't Know Me by Now
TTITLE15=Technotronic - Pump Up the Jam
TTITLE16=Phil Collins - I Wish It Would Rain Down
EXTD=
EXTT0=
EXTT1=
EXTT2=
EXTT3=
EXTT4=
EXTT5=
EXTT6=
EXTT7=
EXTT8=
EXTT9=
EXTT10=
EXTT11=
EXTT12=
EXTT13=
EXTT14=
EXTT15=
EXTT16=
PLAYORDER=
